<?xml version="1.0" encoding="utf-8"?>
<!-- Generator: Adobe Illustrator 21.1.0, SVG Export Plug-In . SVG Version: 6.00 Build 0)  -->
<svg version="1.1" id="Capa_1" xmlns="http://www.w3.org/2000/svg" xmlns:xlink="http://www.w3.org/1999/xlink" x="0px" y="0px"
	 viewBox="0 0 512 512" style="enable-background:new 0 0 512 512;" xml:space="preserve">
<style type="text/css">
	.st0{fill:#92BC2C;}
	.st1{fill:#FFFFFF;}
</style>
<circle class="st0" cx="256" cy="256" r="256"/>
<path class="st1" d="M312.5,88.6c0.2-0.3,0.7-0.4,1.1-0.2l23.8,16.7c0.3,0.2,0.4,0.7,0.2,1.1l-33.2,47.3
	c16.1,5.1,27.1,10.7,27.1,10.7s-26.8,46.2-72.4,46.2s-77.9-43-77.9-43s11.5-7.3,28.5-13.6l-36.4-43.3c-0.3-0.3-0.2-0.8,0.1-1.1
	l22.3-18.7c0.3-0.3,0.8-0.2,1.1,0.1l46,54.9c3.9-0.4,8-0.7,12-0.7c5.8,0,11.6,0.4,17.3,1.2L312.5,88.6z M321.5,212.6
	c12.1-8.7,30.5-31.3,30.5-31.3s47,37.2,47,116.1c0,78.9-81.2,126.4-81.2,126.4s-38.8-39.2-48.3-88.8
	c-9.5-49.7,14.1-104.8,14.1-104.8S309.4,221.2,321.5,212.6L321.5,212.6z M190.7,212.6c-12.1-8.7-30.5-31.3-30.5-31.3
	s-47,37.2-47,116.1c0,78.9,81.2,126.4,81.2,126.4s38.8-39.2,48.3-88.8c9.5-49.7-14.1-104.8-14.1-104.8S202.8,221.2,190.7,212.6
	L190.7,212.6z"/>
</svg>
