<?xml version="1.0" encoding="utf-8"?>
<!-- Generator: Adobe Illustrator 21.1.0, SVG Export Plug-In . SVG Version: 6.00 Build 0)  -->
<svg version="1.1" id="Capa_1" xmlns="http://www.w3.org/2000/svg" xmlns:xlink="http://www.w3.org/1999/xlink" x="0px" y="0px"
	 viewBox="0 0 512 512" style="enable-background:new 0 0 512 512;" xml:space="preserve">
<style type="text/css">
	.st0{fill:#595761;}
	.st1{fill:#FFFFFF;}
</style>
<circle class="st0" cx="256" cy="256" r="256"/>
<path class="st1" d="M255.7,71.1C153.5,71.1,70.8,153.9,70.8,256s82.8,184.9,184.9,184.9S440.5,358.1,440.5,256
	S357.8,71.1,255.7,71.1z M258.2,399.8c-7.3,0-14.5-0.6-21.5-1.6C278.7,369.7,307,316.7,307,256c0-57.7-25.6-108.5-64.3-137.8
	c5.1-0.6,10.3-0.8,15.5-0.8c78,0,141.2,63.2,141.2,141.2C399.5,336.6,336.2,399.8,258.2,399.8z"/>
</svg>
