<?xml version="1.0" encoding="utf-8"?>
<!-- Generator: Adobe Illustrator 21.1.0, SVG Export Plug-In . SVG Version: 6.00 Build 0)  -->
<svg version="1.1" id="Capa_1" xmlns="http://www.w3.org/2000/svg" xmlns:xlink="http://www.w3.org/1999/xlink" x="0px" y="0px"
	 viewBox="0 0 512 512" style="enable-background:new 0 0 512 512;" xml:space="preserve">
<style type="text/css">
	.st0{fill:#0C69C8;}
	.st1{fill:#FFFFFF;}
</style>
<circle class="st0" cx="256" cy="256" r="256"/>
<path class="st1" d="M277.5,141.3c0.1-3.5,1.9-10.5,1.9-10.5s13.2-31.9,13.9-38.7c0-0.5,0.1-0.9,0.2-1.5c0.8-7.4,2.3-21.1-9.4-21.1
	c-6.3,0-9.2,4.7-12.6,10v0c-1.3,2.1-2.6,4.2-4.3,6.2c-11.7,14.6-31.3,32.8-42.5,42.5c-23.6,20.5-46.7,37.4-60.2,47.2l0,0
	c-6.1,4.5-10.3,7.5-11.5,8.7c-9.7,9.4-44.3,71.8-44.3,71.8s-11.2,20-7.2,24.1c4,4.1,13.6,3.1,13.6,3.1s128.9-29.6,140.4-31.9
	c3.1-0.6,5.3-1,7-1.3c4.6-0.8,5.4-0.9,10.6-4c2.4-1.5,4.4-4.5,6.1-8c21.7,8.8,36.9,29.8,36.9,54.1c0,32.4-26.9,58.7-60,58.7
	c-13.6,0-26.1-4.4-36.2-11.9c-3.3-1.6-6-3.1-8.2-4.3c-3.4-1.9-5.7-3.2-7.1-3c-4.1,0.6-2.9,4.4-1.8,7.8c0.7,2.3,1.4,4.5,0.4,5.4
	c-1.1,0.9-4.7-2.5-9-6.5c-5.8-5.5-12.7-12.1-15.9-10.1c-2.6,1.6-0.1,5.8,3,11l0.2,0.4c1.3,2.2,2.8,4.4,4.2,6.5c2.8,4.1,5,7.5,3.9,8
	c-1.4,0.7-10.8-5.7-18.7-14.5c-3.1-3.4-6-7.1-8.8-10.5v0c-6-7.5-11.1-13.8-13.9-13c-3.4,0.9-0.8,7.9,2.9,14.6
	c1.8,3.2,3.8,6.4,5.6,9.1v0c2.8,4.3,4.9,7.6,4.1,8c-1,0.5-10.2-8.4-16.4-19.6c-3.7-6.7-6.8-14-9.3-20c-2.7-6.5-4.7-11.3-6.1-11.8
	c-4.6-1.7-4.6,7.8-2.8,21.4c0.2,1.8,0.6,3.6,1,5.5c18,58.3,73.3,100.7,138.8,100.7c80.1,0,144.9-63.5,144.9-141.8
	C411,208.1,352.2,147,277.5,141.3z M196.6,220.7c-11.7,11.2-33.1,9.8-33.1,9.8s11.5-15.7,18.4-22.3c6.9-6.6,23.7-17.8,23.7-17.8
	S208.4,209.5,196.6,220.7z"/>
</svg>
