<?xml version="1.0" encoding="utf-8"?>
<!-- Generator: Adobe Illustrator 21.1.0, SVG Export Plug-In . SVG Version: 6.00 Build 0)  -->
<svg version="1.1" id="Capa_1" xmlns="http://www.w3.org/2000/svg" xmlns:xlink="http://www.w3.org/1999/xlink" x="0px" y="0px"
	 viewBox="0 0 512 512" style="enable-background:new 0 0 512 512;" xml:space="preserve">
<style type="text/css">
	.st0{fill:#F2D94E;}
	.st1{fill:#FFFFFF;}
</style>
<circle class="st0" cx="256" cy="256" r="256"/>
<path class="st1" d="M170.4,78.1c-0.1-0.2,0.1-0.4,0.3-0.4h126.4c0.1,0,0.3,0.1,0.3,0.2l58.1,187.6c0.1,0.2-0.1,0.4-0.3,0.4H271
	c-0.1,0-0.2,0.1-0.1,0.2l48.3,169.9c0.1,0.3-0.3,0.5-0.5,0.3L131.1,186.8c-0.2-0.2,0-0.5,0.2-0.5h76.4c0.1,0,0.2-0.1,0.1-0.2
	L170.4,78.1z"/>
</svg>
