<?xml version="1.0" encoding="utf-8"?>
<!-- Generator: Adobe Illustrator 21.1.0, SVG Export Plug-In . SVG Version: 6.00 Build 0)  -->
<svg version="1.1" id="Capa_1" xmlns="http://www.w3.org/2000/svg" xmlns:xlink="http://www.w3.org/1999/xlink" x="0px" y="0px"
	 viewBox="0 0 512 512" style="enable-background:new 0 0 512 512;" xml:space="preserve">
<style type="text/css">
	.st0{fill:#EE90E6;}
	.st1{fill:#FFFFFF;}
</style>
<circle class="st0" cx="256" cy="256" r="256"/>
<path class="st1" d="M448,255.8l-95.4-52.2l18.7-63c0-0.1-0.1-0.3-0.2-0.2l-63.1,18.3L256.2,64c-0.1-0.1-0.2-0.1-0.3,0l-51.8,94.7
	L141,140.4c-0.1,0-0.3,0.1-0.2,0.2l18.7,63L64,255.8c-0.1,0.1-0.1,0.2,0,0.3l94.6,51.8l-17.9,60.4c0,0.1,0.1,0.3,0.2,0.2l61.6-17.9
	l53.2,97.3c0.1,0.1,0.3,0.1,0.3,0l53.2-97.3l61.6,17.9c0.1,0,0.3-0.1,0.2-0.2l-17.9-60.4l94.6-51.8
	C448.1,256.1,448.1,255.9,448,255.8z M324.2,256.7l-43.7,23.9l-23.9,43.7c-0.1,0.1-0.3,0.1-0.3,0l-23.9-43.7l-43.7-23.9
	c-0.1-0.1-0.1-0.3,0-0.3l43.7-23.9l23.9-43.7c0.1-0.1,0.3-0.1,0.3,0l23.9,43.7l43.7,23.9C324.3,256.4,324.3,256.6,324.2,256.7z"/>
</svg>
