<?xml version="1.0" encoding="utf-8"?>
<!-- Generator: Adobe Illustrator 21.1.0, SVG Export Plug-In . SVG Version: 6.00 Build 0)  -->
<svg version="1.1" id="Capa_1" xmlns="http://www.w3.org/2000/svg" xmlns:xlink="http://www.w3.org/1999/xlink" x="0px" y="0px"
	 viewBox="0 0 512 512" style="enable-background:new 0 0 512 512;" xml:space="preserve">
<style type="text/css">
	.st0{fill:#D3425F;}
	.st1{fill:#FFFFFF;}
</style>
<circle class="st0" cx="256" cy="256" r="256"/>
<path class="st1" d="M145.3,115.2c4.1-16.1,18.7-28.1,36.1-28.1c13.1,0,24.5,6.7,31.2,16.9h10.9c6.8-6.9,16.2-11.3,26.7-11.3
	c15.3,0,28.5,9.3,34.2,22.5h9.1c5.7-3.6,12.5-5.6,19.7-5.6c15.3,0,28.5,9.3,34.2,22.5h24.8c0.2,0,0.4,0.1,0.6,0.2
	c1.1-0.1,2.3-0.2,3.4-0.2c20.6,0,37.3,16.7,37.3,37.3v111.7l0,0.2l0,0.2v1.6c0,0.7,0,1.4-0.1,2c-2.2,77.5-71.9,139.7-157.6,139.7
	c-87.1,0-157.6-64.3-157.6-143.6c0-38.3,16.4-73,43.2-98.8c-0.1,37.3,0.6,75.9,3.5,75.2C152.8,256,146.7,140.4,145.3,115.2z"/>
</svg>
