<?xml version="1.0" encoding="utf-8"?>
<!-- Generator: Adobe Illustrator 21.1.0, SVG Export Plug-In . SVG Version: 6.00 Build 0)  -->
<svg version="1.1" id="Capa_1" xmlns="http://www.w3.org/2000/svg" xmlns:xlink="http://www.w3.org/1999/xlink" x="0px" y="0px"
	 viewBox="0 0 512 512" style="enable-background:new 0 0 512 512;" xml:space="preserve">
<style type="text/css">
	.st0{fill:#FBA54C;}
	.st1{fill:#FFFFFF;}
</style>
<circle class="st0" cx="256" cy="256" r="256"/>
<path class="st1" d="M326.2,357.8c4.6-16.9-4.3-51.6-4.3-51.6s-6.5,28.3-16.7,38.7c-8.7,8.9-19.3,15.1-34.5,16.7
	c12.5-6,21-18.7,21-33.2c0-20.5-16.9-37-37.7-37s-37.7,16.6-37.7,37c0,5.6,1.3,10.9,3.5,15.6c-13-10.4-15.1-27-15.1-27
	s-14.5,60.4,25.5,88.7c40.1,28.4,118.5,4,118.5,4s-112.3,79-195.5-7c-71.7-74.1-18.7-171.6-18.7-171.6s-2.3,9-2.3,19.5
	c0,10.5,5.7,18.5,5.7,18.5s17-35.8,30.2-50.4c12.5-13.8,28.2-25,41.7-34.6c10.4-7.4,19.6-14,25.1-20.1
	c30.1-33.7,11.7-95.1,11.7-95.1s34,29.9,43.5,68.6c3.6,14.7,1.3,31.5-0.8,46.5c-3.4,24.4-6.1,44,18.3,42.8
	c39.4-2.1,5.2-62.8,5.2-62.8s89.4,47,82.7,129.2c-6.7,82.2-97.7,100.9-97.7,100.9S321.6,374.6,326.2,357.8z"/>
</svg>
