<?xml version="1.0" encoding="utf-8"?>
<!-- Generator: Adobe Illustrator 21.1.0, SVG Export Plug-In . SVG Version: 6.00 Build 0)  -->
<svg version="1.1" id="Capa_1" xmlns="http://www.w3.org/2000/svg" xmlns:xlink="http://www.w3.org/1999/xlink" x="0px" y="0px"
	 viewBox="0 0 512 512" style="enable-background:new 0 0 512 512;" xml:space="preserve">
<style type="text/css">
	.st0{fill:#A1BBEC;}
	.st1{fill:#FFFFFF;}
</style>
<circle class="st0" cx="256" cy="256" r="256"/>
<path class="st1" d="M200.6,414.9c53.8,0,99.8-29.9,118.8-72.2c0.2-0.5-76.3,19.9-73.8,12.7c1.1-3.2,48-20.4,82.2-40.3
	c19.6-11.5,28.7-35.8,28.7-35.8s-33.1,16.1-49.8,20.1c-33.7,8.2-63.4,7.3-63.4,6.5c0-1.9,49.3-11.2,117.8-52.9
	c32.2-19.6,41-53.4,41-53.4s-35.4,21.1-56.8,28.1C294.3,244,248,249,248,246.7c0-4.8,40.8-16,84-36.9c22.5-10.9,41.9-25.1,64.5-40.9
	c36.9-25.9,43-72,43-72s-36.4,23.5-54.2,31.3c-73.3,32.2-138,49.1-184.7,52.7c-70.5,5.5-128.1,54.7-128.1,118.5
	C72.5,363.2,129.9,414.9,200.6,414.9z"/>
</svg>
