<?xml version="1.0" encoding="utf-8"?>
<!-- Generator: Adobe Illustrator 21.1.0, SVG Export Plug-In . SVG Version: 6.00 Build 0)  -->
<svg version="1.1" id="Capa_1" xmlns="http://www.w3.org/2000/svg" xmlns:xlink="http://www.w3.org/1999/xlink" x="0px" y="0px"
	 viewBox="0 0 512 512" style="enable-background:new 0 0 512 512;" xml:space="preserve">
<style type="text/css">
	.st0{fill:#5F6DBC;}
	.st1{fill:none;}
	.st2{fill:#FFFFFF;}
</style>
<circle class="st0" cx="256" cy="256" r="256"/>
<path class="st1" d="M317.1,207c-0.5,13.1-11.3,23.6-24.5,23.6h-17.2v0c0,15,12.4,27.2,27.8,27.2c15.4,0,27.8-12.2,27.8-27.2
	C331,220.5,325.5,211.7,317.1,207z"/>
<path class="st2" d="M401.9,389.1c-10.7-6-21.3-11.9-13.6-20.2c28.3-30.9,45.5-71.7,45.5-116.5c0-96.3-79.6-174.3-177.9-174.3
	s-177.9,78-177.9,174.3s77.7,167.5,175.1,180.3c12.5,1.6,49.2,1.6,81.3,0c38.5-2,75.6-13.9,82.4-23.3
	C423.1,400.9,412.4,394.9,401.9,389.1z M231,230.6c0,15-12.4,27.2-27.8,27.2s-27.8-12.2-27.8-27.2c0-10.1,5.6-18.9,13.9-23.6
	c0.5,13.1,11.3,23.6,24.5,23.6L231,230.6L231,230.6z M303.3,257.8c-15.4,0-27.8-12.2-27.8-27.2v0h17.2c13.2,0,24-10.5,24.5-23.6
	c8.3,4.7,13.9,13.5,13.9,23.6C331,245.6,318.6,257.8,303.3,257.8z"/>
</svg>
