<?xml version="1.0" encoding="utf-8"?>
<!-- Generator: Adobe Illustrator 21.1.0, SVG Export Plug-In . SVG Version: 6.00 Build 0)  -->
<svg version="1.1" id="Capa_1" xmlns="http://www.w3.org/2000/svg" xmlns:xlink="http://www.w3.org/1999/xlink" x="0px" y="0px"
	 viewBox="0 0 512 512" style="enable-background:new 0 0 512 512;" xml:space="preserve">
<style type="text/css">
	.st0{fill:#5FBD58;}
	.st1{fill:#FFFFFF;}
</style>
<circle class="st0" cx="256" cy="256" r="256"/>
<path class="st1" d="M138.4,386.8c-1.2-1.1-2.3-2.2-3.4-3.3c-59.6-59.6-59.6-156.3,0-216c59.6-59.6,249.7-63.6,249.7-63.6
	s25.9,219.9-33.7,279.6c-53,53-135.2,58.9-194.7,17.8l47.9-58.8l76.6-16.5l-62.6-6.3l39.8-40.5l45.3-9.9l-35.8-10.6l35.8-64.6
	l-50.9,57.1l-19.7-27.7l6.9,45.8l-35.5,40l-16.4-50.6v67.3L138.4,386.8z"/>
</svg>
