<?xml version="1.0" encoding="utf-8"?>
<!-- Generator: Adobe Illustrator 21.1.0, SVG Export Plug-In . SVG Version: 6.00 Build 0)  -->
<svg version="1.1" id="Capa_1" xmlns="http://www.w3.org/2000/svg" xmlns:xlink="http://www.w3.org/1999/xlink" x="0px" y="0px"
	 viewBox="0 0 512 512" style="enable-background:new 0 0 512 512;" xml:space="preserve">
<style type="text/css">
	.st0{fill:#DA7C4D;}
	.st1{fill:#FFFFFF;}
</style>
<circle class="st0" cx="256" cy="255.6" r="256"/>
<path class="st1" d="M159.2,380c-0.1,0-0.2-0.1-0.1-0.2l88.3-249.6c0-0.1,0.1-0.1,0.1-0.1h94.3c0.1,0,0.1,0,0.1,0.1l87,249.6
	c0,0.1,0,0.2-0.1,0.2h-267H159.2z M83.1,381c-0.1,0-0.2-0.1-0.1-0.2l65.8-175.6c0-0.1,0.1-0.1,0.1-0.1h57.2c0.1,0,0.2,0.1,0.1,0.2
	l-63.6,175.6c0,0.1-0.1,0.1-0.1,0.1H83.1z"/>
</svg>
