<?xml version="1.0" encoding="utf-8"?>
<!-- Generator: Adobe Illustrator 21.1.0, SVG Export Plug-In . SVG Version: 6.00 Build 0)  -->
<svg version="1.1" id="Capa_1" xmlns="http://www.w3.org/2000/svg" xmlns:xlink="http://www.w3.org/1999/xlink" x="0px" y="0px"
	 viewBox="0 0 512 512" style="enable-background:new 0 0 512 512;" xml:space="preserve">
<style type="text/css">
	.st0{fill:#75D0C1;}
	.st1{fill:#FFFFFF;}
</style>
<circle class="st0" cx="256" cy="256" r="256"/>
<path class="st1" d="M359.4,81.1l1.3,111.6l-97.3,46.7l-1.2-105.4L359.4,81.1z"/>
<path class="st1" d="M457,257l-96.4,55.1l-96.4-55.2l96.4-50.6L457,257z"/>
<path class="st1" d="M247.1,257l-96.4,55.1l-96.4-55.2l96.4-50.6L247.1,257z"/>
<path class="st1" d="M149.7,80.7l100,49.5l-2.6,107.9l-94.4-46.8L149.7,80.7z"/>
<path class="st1" d="M362.1,431.6l-100-49.5l2.6-107.9l94.4,46.8L362.1,431.6z"/>
<path class="st1" d="M153.1,432.6L151.8,321l97.3-46.7l1.2,105.4L153.1,432.6z"/>
</svg>
