<?xml version="1.0" encoding="utf-8"?>
<!-- Generator: Adobe Illustrator 21.1.0, SVG Export Plug-In . SVG Version: 6.00 Build 0)  -->
<svg version="1.1" id="Capa_1" xmlns="http://www.w3.org/2000/svg" xmlns:xlink="http://www.w3.org/1999/xlink" x="0px" y="0px"
	 viewBox="0 0 512 512" style="enable-background:new 0 0 512 512;" xml:space="preserve">
<style type="text/css">
	.st0{fill:#2D75EA;}
	.st1{fill:#FFFFFF;}
</style>
<circle class="st0" cx="256" cy="256" r="256"/>
<g>
	<path class="st1" d="M98.2,314.9c13.6,0,26.8-0.1,39.9,0.2c1.6,0,3.6,2.4,4.6,4.2c15,26.4,36.3,45.8,64.2,57.7
		c78.3,33.5,169.4-18.9,180.1-103.4c9.1-71.7-37.3-135.3-108.1-148.2c-56.1-10.2-113.2,19.3-139.2,72.3c-2.1,4.2-4.3,5.3-8.7,5.2
		c-11.6-0.3-23.3-0.1-35-0.1C110.4,149,169.8,83.6,258.8,84.1c86.8,0.5,160.7,69,168.1,155.3c7.8,91.5-54.9,169.2-139,184.3
		C194.2,440.5,120.5,379.8,98.2,314.9z"/>
	<path class="st1" d="M82.5,289c0-21.2,0-41.7,0-62.7c43.1,0,86.1,0,129.7,0c0-14.6,0-28.7,0-44.3c34.6,26.1,68.1,51.3,102.1,77
		c-33.9,26.1-67.3,51.8-101.7,78.3c0-16.6,0-32.2,0-48.3C169,289,126,289,82.5,289z"/>
</g>
</svg>
