<?xml version="1.0" encoding="utf-8"?>
<!-- Generator: Adobe Illustrator 21.1.0, SVG Export Plug-In . SVG Version: 6.00 Build 0)  -->
<svg version="1.1" id="Capa_1" xmlns="http://www.w3.org/2000/svg" xmlns:xlink="http://www.w3.org/1999/xlink" x="0px" y="0px"
	 viewBox="0 0 512 512" style="enable-background:new 0 0 512 512;" xml:space="preserve">
<style type="text/css">
	.st0{fill:#B763CF;}
	.st1{fill:#FFFFFF;}
</style>
<circle class="st0" cx="256" cy="256" r="256"/>
<path class="st1" d="M377.5,353.2C414,324,437,281.7,437,234.8C437,146.5,356,75,256,75S75,146.5,75,234.8
	c0,45.3,21.3,86.1,55.6,115.2c-2.1,7.2-3.2,15-3.2,23.1c0,35.3,21.3,63.9,47.6,63.9c17.1,0,32.1-12.1,40.5-30.2
	c8.4,18.1,23.4,30.2,40.5,30.2c15.6,0,29.4-10,38.1-25.6c8.7,15.5,22.5,25.6,38.1,25.6c26.3,0,47.6-28.6,47.6-63.9
	C379.8,366.1,379,359.4,377.5,353.2z M360.8,237.9c0,44.8-48,81.1-107.2,81.1c-59.2,0-107.2-36.3-107.2-81.1s48-81.1,107.2-81.1
	C312.8,156.8,360.8,193.1,360.8,237.9z"/>
</svg>
