<?xml version="1.0" encoding="utf-8"?>
<!-- Generator: Adobe Illustrator 21.1.0, SVG Export Plug-In . SVG Version: 6.00 Build 0)  -->
<svg version="1.1" id="Capa_1" xmlns="http://www.w3.org/2000/svg" xmlns:xlink="http://www.w3.org/1999/xlink" x="0px" y="0px"
	 viewBox="0 0 841.9 268.5" style="enable-background:new 0 0 841.9 268.5;" xml:space="preserve">
<style type="text/css">
	.st0{fill:#1D1D1B;}
	.st1{fill:#F8F6F7;}
	.st2{fill:#E52529;}
	.st3{fill:url(#SVGID_1_);}
	.st4{fill:url(#SVGID_2_);}
	.st5{fill:url(#SVGID_3_);}
	.st6{fill:url(#SVGID_4_);}
	.st7{fill:url(#SVGID_5_);}
	.st8{fill:url(#SVGID_6_);}
	.st9{fill:url(#SVGID_7_);}
	.st10{fill:url(#SVGID_8_);}
</style>
<title>Sin título-1</title>
<path class="st0" d="M109.1,70.8c49.4,0.1,88,40.6,87.6,87.9c-0.4,48.6-39,87.4-87.6,87.4c-48.4,0-87.7-39.2-87.7-87.6
	S60.7,70.8,109.1,70.8C109.1,70.8,109.1,70.8,109.1,70.8L109.1,70.8z"/>
<path class="st1" d="M57.9,168.1c7.7,0,15.4,0,23.1,0c1.5-0.2,3,0.7,3.5,2.1c4.9,9.8,12.8,15.3,23.9,15.6c11.3,0.3,19.8-4.8,25-14.8
	c1.2-2.2,2.5-2.9,4.9-2.8c15.1,0.1,30.3,0.1,45.4,0c2.6,0,3.2,0.6,2.7,3.2c-5.3,27.4-20.5,47.4-45.9,58.9
	c-33.6,15.3-74,3.7-95.4-26.8c-6.8-9.8-11.3-21-13.3-32.7c-0.4-2.1,0.3-2.6,2.3-2.6C42.1,168.2,50,168.1,57.9,168.1z"/>
<path class="st2" d="M160.5,148.8c-7.7,0-15.4-0.1-23.1,0c-1.6,0.2-3.2-0.7-3.8-2.3c-5.2-10-13.6-15.4-24.8-15.3
	s-19.5,5.6-24.5,15.7c-0.4,1.2-1.7,2-3,1.9c-15.8,0-31.7,0-47.5,0c-2,0-2.3-0.7-2-2.5c5.4-33,31.5-59.8,63.7-64.7
	c29-4.5,53.4,4.3,72.9,26.1c9.8,11,15.3,24.2,17.9,38.6c0.4,2.3-0.8,2.4-2.5,2.4C176.1,148.8,168.3,148.8,160.5,148.8z"/>
<path class="st1" d="M109.3,140.9c9.7-0.1,17.6,7.8,17.7,17.5c0,0.1,0,0.2,0,0.3c-0.1,9.8-8.1,17.7-17.9,17.7
	c-9.8-0.1-17.7-8.1-17.7-17.9c0.1-9.7,8-17.5,17.7-17.5C109.1,140.9,109.2,140.9,109.3,140.9z"/>
<path class="st0" d="M813.2,97.5c-3,8.8-6.1,17.6-9.1,26.4c-11.5,34.6-23,69.2-34.5,103.8c-0.8,2.3-2.4,4.2-4.4,5.4
	c-4.9,3.3-9.6,3.7-15.2,1.5c-8.1-3.1-16.5-5.5-24.8-8c-2.1-0.6-2.8-1.6-2.7-3.7c0.2-3.5,0-7,0-10.8l-34-5l1.8-17.2l-14.8,3.7
	c0.5,3.1,0.9,6.3,1.5,9.5c0.4,1.8-0.3,2.6-1.7,3.7c-5.8,4.6-12,4.2-18.8,2.8c-12.6-2.6-25.4-4.6-38.1-6.8c-2-0.3-2.7-1.2-2.9-3.2
	c-0.3-3.4-0.8-6.7-1.2-10.6l-8,4.2l-5.5-9.9c-2,1-3.9,1.9-5.7,3c-1.8,1.2-4,1.5-6.1,1.1c-13.3-2.2-26.5-4.3-39.8-6.4
	c-0.6-0.1-1.2-0.3-2-0.5l2.8-17.8l-23,8.9c0,6.5,0,13.8,0,21.1c0,3.2-0.1,6.4,0,9.5c0.1,1.9-0.7,2.9-2.3,3.8
	c-8.1,4.4-8,4.4-16.3,0.4c-20.8-10.3-41.7-20.6-62.6-30.9c-0.5-0.3-1.1-0.5-2-0.9c0,5.9-0.5,11.6,0.1,17.1c0.6,5.9-1.4,8.9-6.7,11.4
	s-10.9,2.8-16.4,3.7c-9,1.5-18,2.7-27.4,4.1l-1.5-15.3c-10.6,8.9-22.1,14.3-35.8,13.5c-13.9-0.8-24.3-7.7-32.2-19l8.1,31.3
	c-4.6,2.5-9,5.7-14,7.5c-12.6,4.5-25.5,8.4-38.7,12.6l-44.3-100.2l-10.4,4.4l-27.4-46.2c6.2-8.4,14.8-13.4,23.5-18.3
	c17.1-9.7,35.2-16.6,54.9-19c14.6-1.8,29.2-1.6,43,4.2c14.7,6.2,25.7,16.3,30.3,32.2c1.9,6.7,1.7,13.6,0.2,21
	c10.8-7.3,22.2-10.6,35-9.1c-0.1-1.2-0.1-2.2-0.2-3.1s-0.1-1.8-0.2-3.1l-9.7,2.2c-0.1-1.8-0.2-3.4-0.3-5c-0.4-7.4-0.6-14.8-1.1-22.1
	c-0.1-2.3,0.5-3.3,2.5-4.5c8.6-5.2,18.4-7.3,27.8-10.4c12-3.9,24-7.7,36.4-11.6v6.2c3.8-2.2,7.5-4.5,11.4-6.5c0.6-0.3,2.2,0.6,3,1.4
	c10,8.7,19.9,17.5,29.7,26.3c2.1,1.9,3.7,2.5,6,0.7c1.5-1,3.1-1.8,4.7-2.6l-7.4-8.7l17.5-20c5.9-6.8,12.2-13.4,17.8-20.5
	c4.5-5.7,10.3-10.3,17-13.3h0.6l23.4,34.7l-32.2,17.2c12.3,1.3,23.1,5.6,32.5,13.8c0.6-3.8,1.1-7,1.7-10.2c0.2-0.9,0.3-2.2,0.9-2.5
	c4.1-2,7.4-5.6,12.4-5.5c8.2,0,16.4,0.1,24.6,0c1.4-0.1,2.8-0.5,4-1.1c3.6-1.6,7.1-4.6,10.8-4.8c11.3-0.6,22.6-0.2,33.8-0.3
	c1.7,0,2.3,0.5,2.5,2.2c1.2,7.9,2.4,15.8,3.7,23.7c1.4,9,2.9,18,4.4,27.4c8.4-5.9,18.4-9.1,28.7-9.1c0-6.7,0.6-13.1-0.2-19.3
	c-0.9-7,1.3-11.3,8.1-13.3c1.5-0.4,3.2-1.1,4.6-0.8c16,3.4,32,7.1,48.1,10.4c4.1,0.8,7.2,1.8,7.3,6.7c0,0.1,0.3,0.2,0.5,0.4
	c1.1-0.5,2.2-1,3.2-1.7c2.5-1.8,5.1-1.8,8.1-1c7.2,2,14.5,3.6,21.8,5.3c6.9,1.6,13.8,3.2,20.6,4.8L813.2,97.5z M318.6,213.4
	c-0.3-1.3-0.6-2.3-0.8-3.3c-4.1-15.8-8.2-31.5-12.5-47.2c-0.6-2.3-0.3-3.6,1.9-4.9c11.9-7.8,21.6-17.6,27.7-30.6
	c4-8.6,6.1-17.6,3-26.8c-5-15-16.6-22.8-31.2-26.2c-6.8-1.4-13.8-2-20.8-1.7c-23.1,0.8-44,8.9-63.6,20.6c-0.4,0.2-0.9,0.4-1.4,0.6
	l16.9,28.5l11.6-5.6L296,220.6L318.6,213.4z M773.2,93.8l-12.6,51.8c-0.3-0.5-0.5-0.9-0.7-1.4c-3.8-17.8-7.6-35.7-11.2-53.5
	c-0.4-2.2-1.3-3.1-3.4-3.5c-4-0.7-8-1.6-12.1-2.3l-21.5-4.3l-0.6,9.6c1.9,0.6,3.8,1.2,5.8,1.6c2,0.3,2.4,1.4,2.2,3.2
	c-0.5,4.7-1,9.4-1.3,14.1c-0.1,1.3,0.4,2.6,1.2,3.6c6.8,7,10.5,16.4,10.5,26.2c0,14.4-5.9,26.1-16,36.1c-0.8,0.8-2.1,1.8-2.2,2.8
	c-0.7,4.9-1,9.9-1.5,15.1l21,3.3l9.5-53.3h1c0,4.2-0.1,8.3,0,12.5c0.4,18.4,0.8,36.7,1.2,55.1c0,0.8,0.5,2.2,1.1,2.4
	c6,1.9,12,3.7,18.2,5.5l39.2-118.4L773.2,93.8z M516.4,187.9v-22.8l-3.1-0.5c-13.2-2.2-24.4-8-32.1-19.1c-2.4-3.5-5.9-6.1-9.9-7.5
	c-8.5-3.2-16.9-6.6-25.7-10.1L480,91.5l-24.5-23.3l-24.8,34.7l-0.6-0.3l-2-34.3c-9.2,2.7-17.9,5.3-26.6,7.9c-7.9,2.3-7.9,2.3-7,10.3
	c0,0.2,0.2,0.3,0.4,0.6l8.9-2.1c0.2,0.8,0.4,1.6,0.5,2.4c0.7,8.5,1.5,17,2.1,25.4c0.3,4.8,0.5,9.6,4.7,13c1.1,1.1,1.9,2.4,2.5,3.8
	c7.5,14.1,6.5,28.2-0.2,42.2c-0.6,1.2-1.6,2.4-1.5,3.6c0.3,5.7,0.8,11.4,1.3,17.3l21.2-3v-43L516.4,187.9z M628.6,139.5l0.7,0.2
	c0.1,0.5,0.2,1,0.3,1.4c2.3,14.8,4.5,29.6,6.7,44.3c0.3,1.9,0.9,2.6,2.8,2.9c3.7,0.4,7.3,1.1,11,1.6l14.1,2.1c0.3-4-0.7-6.4-4.4-8.4
	c-9.9-5.2-15.9-13.8-18.2-24.7c-3.1-14.4,1.3-27.1,10-38.6c0.8-1,1.3-2.2,1.3-3.4c-2.3-15.7-4.8-31.4-7.2-47.1
	c-0.3-1.7-0.9-2.5-2.7-2.4c-4.7,0.1-9.4,0.1-14.2,0c-1.7,0-2.5,0.5-2.8,2.3c-1.1,7.1-2.4,14.1-3.7,21.2c-1,5.7-2.1,11.4-3.1,17.2
	c-0.5-0.3-0.9-0.8-1-1.4c-1.9-10.4-3.8-20.8-5.6-31.2c-0.3-1.6-0.8-2.3-2.5-2.3c-7.5,0.1-15,0-22.5,0.1c-1,0.3-1.8,1-2.2,2
	c-2.8,16-5.5,32.1-8.1,48.2c-0.1,1.2,0.4,2.4,1.2,3.3c2,2.1,4.3,4,7.2,6.6c-3.6,3.4-7,6.4-10.4,9.6c-0.8,0.6-1.4,1.5-1.7,2.4
	c-1.3,6.9-2.4,13.9-3.6,21l26.2,4.5l6.2-38.9h0.6l15.6,33.4L628.6,139.5z M551.3,118.1c-6.6,8-14.8,12.1-25.8,11.9L560,93.4
	c-4.3-5.5-10-9.6-16.6-11.9c-15.2-5.2-29.4-2.6-42.7,5.6c-12.9,8-19.5,23-16.7,37.9c2.8,15,13.2,25.4,28.7,28.3
	c15.1,2.8,29.1-1,42.2-8.4c5.1-2.9,9.6-6.8,14.7-10.5L551.3,118.1z M367.8,191.4c1-0.1,3.1-0.1,5.1-0.5c19-3.5,33.1-18.3,36.1-37.8
	c2.5-16.4-8.8-31.7-25.2-34.2c-2.1-0.3-4.2-0.4-6.3-0.3c-19.1,1.4-35.2,14.8-40,33.3C332.2,172.9,345.9,191.3,367.8,191.4z
	 M679.6,179.4c20.3-0.1,38.4-17,40.2-37.7c1.6-18.3-11.8-32-30.2-31c-17.6,1-29.9,10.6-36.7,26.6
	C643.9,158.4,657.6,179.6,679.6,179.4z M537.9,31.1l-25.2,30.3l2.4,3.6l35-17.4L537.9,31.1z M463.4,124.4l9.9,3.7l-0.8-13.9
	L463.4,124.4z"/>
<linearGradient id="SVGID_1_" gradientUnits="userSpaceOnUse" x1="255.0628" y1="107.0024" x2="345.6798" y2="153.1809" gradientTransform="matrix(1 0 0 -1 0 267.89)">
	<stop  offset="1.000000e-02" style="stop-color:#FFED00"/>
	<stop  offset="0.23" style="stop-color:#FFE900"/>
	<stop  offset="0.45" style="stop-color:#FFDD00"/>
	<stop  offset="0.47" style="stop-color:#FFDC00"/>
	<stop  offset="0.83" style="stop-color:#FAB92B"/>
	<stop  offset="0.9" style="stop-color:#F9B233"/>
</linearGradient>
<path class="st3" d="M318.6,213.4l-22.5,7.2l-46.7-103.9l-11.6,5.6l-16.9-28.6c0.5-0.2,0.9-0.4,1.4-0.6
	c19.6-11.7,40.5-19.8,63.6-20.6c7-0.3,13.9,0.3,20.8,1.7c14.7,3.3,26.2,11.1,31.2,26.2c3.1,9.3,1,18.3-3,26.8
	c-6.1,13-15.8,22.9-27.7,30.6c-2.1,1.4-2.5,2.6-1.9,4.9c4.2,15.7,8.3,31.5,12.5,47.2C318,211.1,318.3,212,318.6,213.4z M300.5,148.1
	c4.4-3.7,8.6-6.7,12.3-10.4c2.3-2.3,4.1-5.1,5.3-8.1c3.4-8.7,1.6-19.5-8.4-23.6c-6.9-2.9-13.6-2-20.1,1.3c-0.6,0.3-1,2-0.7,2.9
	c1.5,5.4,3.1,10.8,4.8,16.2C295.8,133.3,298,140.3,300.5,148.1z"/>
<linearGradient id="SVGID_2_" gradientUnits="userSpaceOnUse" x1="697.6093" y1="98.6321" x2="807.6586" y2="154.7066" gradientTransform="matrix(1 0 0 -1 0 267.89)">
	<stop  offset="1.000000e-02" style="stop-color:#FFED00"/>
	<stop  offset="0.23" style="stop-color:#FFE900"/>
	<stop  offset="0.45" style="stop-color:#FFDD00"/>
	<stop  offset="0.47" style="stop-color:#FFDC00"/>
	<stop  offset="0.83" style="stop-color:#FAB92B"/>
	<stop  offset="0.9" style="stop-color:#F9B233"/>
</linearGradient>
<path class="st4" d="M773.2,93.8l27.7,6.1l-39.2,118.4c-6.2-1.8-12.2-3.6-18.2-5.5c-0.6-0.2-1.1-1.6-1.1-2.4
	c-0.5-18.4-0.9-36.7-1.2-55.1c-0.1-4.2,0-8.3,0-12.5h-1l-9.5,53.3l-21-3.3c0.5-5.2,0.8-10.1,1.5-15.1c0.1-1,1.4-1.9,2.2-2.8
	c10.1-9.9,16-21.7,16-36.1c0-9.8-3.7-19.2-10.5-26.2c-0.8-1-1.3-2.3-1.2-3.6c0.3-4.7,0.7-9.4,1.3-14.1c0.2-1.8-0.1-2.9-2.2-3.2
	c-2-0.4-3.9-1-5.8-1.6l0.7-9.7l21.5,4.3c4,0.8,8,1.7,12.1,2.3c2.1,0.3,3,1.3,3.4,3.5c3.6,17.9,7.5,35.7,11.2,53.5
	c0.2,0.5,0.4,1,0.7,1.4L773.2,93.8z"/>
<linearGradient id="SVGID_3_" gradientUnits="userSpaceOnUse" x1="397.6508" y1="105.0193" x2="491.8786" y2="153.0233" gradientTransform="matrix(1 0 0 -1 0 267.89)">
	<stop  offset="1.000000e-02" style="stop-color:#FFED00"/>
	<stop  offset="0.23" style="stop-color:#FFE900"/>
	<stop  offset="0.45" style="stop-color:#FFDD00"/>
	<stop  offset="0.47" style="stop-color:#FFDC00"/>
	<stop  offset="0.83" style="stop-color:#FAB92B"/>
	<stop  offset="0.9" style="stop-color:#F9B233"/>
</linearGradient>
<path class="st5" d="M516.4,187.9l-82.2-41v43L413,193c-0.5-5.9-1-11.6-1.3-17.3c-0.1-1.2,0.9-2.4,1.5-3.6c6.7-14,7.8-28.1,0.2-42.2
	c-0.6-1.4-1.5-2.8-2.5-3.9c-4.2-3.5-4.4-8.2-4.7-13c-0.6-8.5-1.4-17-2.1-25.4c-0.1-0.8-0.3-1.6-0.5-2.4l-8.9,2.1
	c-0.2-0.3-0.4-0.4-0.4-0.6c-0.9-8-0.9-8,7-10.3c8.7-2.6,17.4-5.2,26.6-7.9l2,34.3l0.6,0.3l24.8-34.7L480,91.5l-34.5,36.3
	c8.8,3.5,17.2,7,25.7,10.1c4,1.3,7.5,4,9.9,7.5c7.7,11.1,18.9,16.9,32.1,19.1l3.1,0.5L516.4,187.9z"/>
<linearGradient id="SVGID_4_" gradientUnits="userSpaceOnUse" x1="567.8373" y1="105.5848" x2="667.2988" y2="156.2607" gradientTransform="matrix(1 0 0 -1 0 267.89)">
	<stop  offset="1.000000e-02" style="stop-color:#FFED00"/>
	<stop  offset="0.23" style="stop-color:#FFE900"/>
	<stop  offset="0.45" style="stop-color:#FFDD00"/>
	<stop  offset="0.47" style="stop-color:#FFDC00"/>
	<stop  offset="0.83" style="stop-color:#FAB92B"/>
	<stop  offset="0.9" style="stop-color:#F9B233"/>
</linearGradient>
<path class="st6" d="M628.6,139.5l-10.2,26l-15.6-33.3h-0.6l-6.2,38.9l-26.1-4.5c1.2-7.2,2.3-14.1,3.6-21c0.3-1,0.9-1.8,1.7-2.4
	c3.3-3.2,6.8-6.3,10.4-9.6c-2.9-2.6-5.2-4.5-7.2-6.6c-0.8-0.9-1.3-2.1-1.2-3.3c2.6-16.1,5.3-32.1,8.1-48.2c0.3-1,1.2-1.7,2.2-2
	c7.5-0.2,15,0,22.5-0.1c1.7,0,2.2,0.7,2.5,2.3c1.8,10.4,3.7,20.8,5.6,31.2c0.1,0.6,0.5,1.1,1,1.4c1-5.7,2.1-11.4,3.1-17.2
	c1.3-7.1,2.6-14.1,3.7-21.2c0.3-1.8,1.1-2.3,2.8-2.3c4.7,0.1,9.4,0.1,14.2,0c1.8,0,2.5,0.7,2.7,2.4c2.4,15.7,4.9,31.4,7.2,47.1
	c0,1.3-0.5,2.5-1.3,3.4c-8.7,11.5-13.1,24.1-10,38.6c2.3,10.9,8.3,19.4,18.2,24.7c3.7,1.9,4.6,4.4,4.4,8.4l-14.2-2.1
	c-3.7-0.6-7.3-1.2-11-1.6c-1.9-0.2-2.5-1-2.8-2.9c-2.2-14.8-4.4-29.6-6.7-44.4c-0.1-0.5-0.2-1-0.3-1.4L628.6,139.5z"/>
<linearGradient id="SVGID_5_" gradientUnits="userSpaceOnUse" x1="487.9358" y1="131.5357" x2="562.5081" y2="169.527" gradientTransform="matrix(1 0 0 -1 0 267.89)">
	<stop  offset="1.000000e-02" style="stop-color:#FFED00"/>
	<stop  offset="0.23" style="stop-color:#FFE900"/>
	<stop  offset="0.45" style="stop-color:#FFDD00"/>
	<stop  offset="0.47" style="stop-color:#FFDC00"/>
	<stop  offset="0.83" style="stop-color:#FAB92B"/>
	<stop  offset="0.9" style="stop-color:#F9B233"/>
</linearGradient>
<path class="st7" d="M551.3,118.1l18.2,16.4c-5.1,3.7-9.6,7.7-14.7,10.5c-13.1,7.4-27.1,11.2-42.2,8.4
	c-15.5-2.9-25.9-13.3-28.7-28.3c-2.8-14.9,3.9-29.9,16.7-37.9c13.3-8.2,27.5-10.8,42.7-5.6c6.6,2.3,12.3,6.4,16.6,11.9L525.6,130
	C536.6,130.2,544.7,126.1,551.3,118.1z M537,101.1c-4.8-5.8-12.6-8.2-19.9-6.1c-7.4,2-13.4,8.7-14.2,16.1c-0.9,7.9,1.9,14.2,8.4,19
	L537,101.1z"/>
<linearGradient id="SVGID_6_" gradientUnits="userSpaceOnUse" x1="338.3874" y1="95.3409" x2="407.3403" y2="130.4775" gradientTransform="matrix(1 0 0 -1 0 267.89)">
	<stop  offset="1.000000e-02" style="stop-color:#FFED00"/>
	<stop  offset="0.23" style="stop-color:#FFE900"/>
	<stop  offset="0.45" style="stop-color:#FFDD00"/>
	<stop  offset="0.47" style="stop-color:#FFDC00"/>
	<stop  offset="0.83" style="stop-color:#FAB92B"/>
	<stop  offset="0.9" style="stop-color:#F9B233"/>
</linearGradient>
<path class="st8" d="M367.8,191.4c-21.9-0.1-35.6-18.5-30.3-39.5c4.8-18.5,20.9-31.9,40-33.3c16.5-1,30.8,11.6,31.8,28.1
	c0.1,2.1,0,4.2-0.3,6.3c-3,19.5-17.1,34.3-36.1,37.8C370.9,191.2,368.8,191.3,367.8,191.4z M378.4,127c-7-1.8-16.1,3.2-19,10.5
	c-3.1,7.6,0.1,16.3,7.5,20.6c8.2,4.6,18.5,2.7,24.4-4.5c3.8-4.7,5-13.9,0.8-17.9c-0.5,6.5-3.9,10.3-10.1,11.1
	c-4.9,0.6-10.3-2.8-11.6-7.2C368.9,134.2,371.1,130.7,378.4,127z"/>
<linearGradient id="SVGID_7_" gradientUnits="userSpaceOnUse" x1="652.1385" y1="106.1489" x2="718.1647" y2="139.7918" gradientTransform="matrix(1 0 0 -1 0 267.89)">
	<stop  offset="1.000000e-02" style="stop-color:#FFED00"/>
	<stop  offset="0.23" style="stop-color:#FFE900"/>
	<stop  offset="0.45" style="stop-color:#FFDD00"/>
	<stop  offset="0.47" style="stop-color:#FFDC00"/>
	<stop  offset="0.83" style="stop-color:#FAB92B"/>
	<stop  offset="0.9" style="stop-color:#F9B233"/>
</linearGradient>
<path class="st9" d="M679.6,179.4c-22,0.2-35.7-21-26.7-42c6.8-16.1,19.1-25.7,36.7-26.6c18.5-1,31.8,12.7,30.2,31
	C718,162.5,699.9,179.3,679.6,179.4z M690.1,118c-10-1.1-17.9,3.6-20.5,11.6c-2.3,7.1,1.1,15.5,8.1,19.4c7.7,4.4,17.8,2.8,23.4-3.5
	c5-5.6,5.9-13.4,2.2-18.6c-0.9,6.6-4.5,10.3-10.2,10.5c-6.3,0.2-10.8-2.8-11.9-8.3C680.1,124.7,682.9,121.1,690.1,118z"/>
<linearGradient id="SVGID_8_" gradientUnits="userSpaceOnUse" x1="510.2553" y1="211.3093" x2="545.5281" y2="229.2756" gradientTransform="matrix(1 0 0 -1 0 267.89)">
	<stop  offset="1.000000e-02" style="stop-color:#FFED00"/>
	<stop  offset="0.23" style="stop-color:#FFE900"/>
	<stop  offset="0.45" style="stop-color:#FFDD00"/>
	<stop  offset="0.47" style="stop-color:#FFDC00"/>
	<stop  offset="0.83" style="stop-color:#FAB92B"/>
	<stop  offset="0.9" style="stop-color:#F9B233"/>
</linearGradient>
<path class="st10" d="M537.9,31.1l12.2,16.5l-35,17.4l-2.4-3.6L537.9,31.1z"/>
<path class="st0" d="M300.5,148.1c-2.5-7.8-4.7-14.8-6.9-21.8c-1.7-5.4-3.3-10.8-4.8-16.2c-0.2-0.9,0.1-2.6,0.7-2.9
	c6.5-3.3,13.2-4.2,20.1-1.3c10,4.2,11.8,14.9,8.4,23.6c-1.2,3-3,5.8-5.3,8.1C309.1,141.3,304.9,144.4,300.5,148.1z M304.9,133.5
	c5.9-4.5,8.3-11.8,5.7-16.8c-1.9-3.5-7.2-5.2-12.1-3.7c0,0.2-0.1,0.4-0.1,0.6C300.5,120.2,302.7,126.7,304.9,133.5L304.9,133.5z"/>
<path class="st0" d="M537,101.2l-25.7,29.1c-6.5-4.8-9.3-11.2-8.4-19c0.8-7.4,6.8-14.1,14.2-16.1C524.4,93,532.2,95.4,537,101.2z
	 M527.2,102.2c-5.6-1.7-11.6-0.5-14,2.9c-3.1,4.4-4.6,9.2-1.8,14.8L527.2,102.2z"/>
<path class="st0" d="M378.4,127c-7.3,3.7-9.5,7.2-8,12.4c1.3,4.4,6.8,7.8,11.6,7.2c6.2-0.8,9.6-4.5,10.1-11.1c4.2,4,3,13.2-0.8,17.9
	c-6,7.2-16.3,9.2-24.4,4.5c-7.5-4.3-10.7-13-7.5-20.6C362.3,130.3,371.4,125.3,378.4,127z"/>
<path class="st0" d="M690.1,118c-7.2,3-10,6.7-9,11.3c1.2,5.4,5.6,8.5,11.9,8.3c5.7-0.2,9.3-3.9,10.2-10.5
	c3.7,5.2,2.8,12.9-2.2,18.5c-5.6,6.3-15.8,7.8-23.4,3.5c-7-3.9-10.5-12.3-8.1-19.4C672.2,121.6,680.1,117,690.1,118z"/>
</svg>
