<?xml version="1.0" encoding="utf-8"?>
<!-- Generator: Adobe Illustrator 21.1.0, SVG Export Plug-In . SVG Version: 6.00 Build 0)  -->
<svg version="1.1" id="Capa_1" xmlns="http://www.w3.org/2000/svg" xmlns:xlink="http://www.w3.org/1999/xlink" x="0px" y="0px"
	 viewBox="0 0 512 512" style="enable-background:new 0 0 512 512;" xml:space="preserve">
<style type="text/css">
	.st0{fill:#FA8581;}
	.st1{fill:#FFFFFF;}
</style>
<circle class="st0" cx="256" cy="256" r="256"/>
<path class="st1" d="M382.4,363c0,0-40.8,32.8-122.1,19.2c-61.7-10.3-94.5-78.2-94.5-114.8c0-86.6,64.1-106.3,107.4-106.3
	c43.3,0,71.6,42.3,71.6,75s-23.1,61.3-59.1,61.3c-36,0-46.7-25.3-46.7-48.5c0-23.2,18.8-31.4,36-31.4s23,14.6,23,27.2
	c0,12.6-9.8,17.1-17.9,17.1c-8.1,0-8.9-4.1-12.1-8.4c-3.1-4.3,4-20.7-7.7-20.7c-11.7,0-13.9,18.8-13.9,18.8s4.3,36.3,39.2,35.6
	c35-0.6,51.6-27.7,46.7-54.4c-4.8-26.8-30.8-55.2-76.4-49.5s-64.2,51.8-56,101c8.2,49.2,67.2,77.8,113.6,67.5
	c46.4-10.3,92.6-43.8,92.6-128.9c0-85.1-73.7-136.3-161.6-127.8c-87.9,8.4-142.5,85.3-139,177.6c3.5,92.3,91.1,142.6,165.2,145.2
	c74.1,2.6,119.5-40.3,119.5-40.3s10.2-9.1,6.2-16.2C392.4,354.2,382.4,363,382.4,363z"/>
</svg>
