<?xml version="1.0" encoding="utf-8"?>
<!-- Generator: Adobe Illustrator 21.1.0, SVG Export Plug-In . SVG Version: 6.00 Build 0)  -->
<svg version="1.1" id="Capa_1" xmlns="http://www.w3.org/2000/svg" xmlns:xlink="http://www.w3.org/1999/xlink" x="0px" y="0px"
	 viewBox="0 0 512 512" style="enable-background:new 0 0 512 512;" xml:space="preserve">
<style type="text/css">
	.st0{fill:#C9BB8A;}
	.st1{fill:#FFFFFF;}
</style>
<circle class="st0" cx="255.5" cy="255.6" r="256.5"/>
<path class="st1" d="M357.1,247.7c0,0,0-0.1,0-0.1l23.8-138.5c0-0.1,0.1-0.1,0.1-0.1h7.5c0.1,0,0.1,0,0.1,0.1l53.5,169.4
	c0,0.1,0,0.1,0,0.1l-39.5,30.8c-0.1,0-0.1,0-0.2,0L357.1,247.7z M69,339.5c0,0.1,0,0.1,0.1,0.1l81.3,26.6c0,0,0.1,0,0.1,0
	l181.8-125.5c0,0,0.1-0.1,0.1-0.1l19.5-130.8c0-0.1-0.1-0.2-0.1-0.2h-161c0,0-0.1,0-0.1,0L69,256.4c0,0,0,0.1,0,0.1V339.5z
	 M184.3,373l88.9,29.1c0,0,0.1,0,0.1,0l105.8-75.9c0.1,0,0.1-0.1,0-0.2l-39.7-59c0-0.1-0.1-0.1-0.2,0L184.3,373z"/>
</svg>
