<?xml version="1.0" encoding="utf-8"?>
<!-- Generator: Adobe Illustrator 21.1.0, SVG Export Plug-In . SVG Version: 6.00 Build 0)  -->
<svg version="1.1" id="Capa_1" xmlns="http://www.w3.org/2000/svg" xmlns:xlink="http://www.w3.org/1999/xlink" x="0px" y="0px"
	 viewBox="0 0 512 512" style="enable-background:new 0 0 512 512;" xml:space="preserve">
<style type="text/css">
	.st0{fill:#5695A3;}
	.st1{fill:#FFFFFF;}
</style>
<circle class="st0" cx="256" cy="256" r="255.9"/>
<path class="st1" d="M455.5,254.2L356.3,82.7c-0.1-0.1-0.1-0.1-0.3-0.1H157.1c-0.1,0-0.2,0.1-0.3,0.1L56.5,254.2
	c-0.1,0.1-0.1,0.2,0,0.3l100.4,171.3c0.1,0.1,0.1,0.1,0.3,0.1H356c0.1,0,0.2-0.1,0.3-0.1l99.3-171.3
	C455.6,254.4,455.6,254.3,455.5,254.2z M256,346.7c-51.1,0-92.4-41.4-92.4-92.4c0-51.1,41.4-92.4,92.4-92.4s92.4,41.4,92.4,92.4
	C348.5,305.3,307.1,346.7,256,346.7z"/>
</svg>
